<?xml version="1.0" encoding="UTF-8"?>
<svg id="Layer_1" data-name="Layer 1" xmlns="http://www.w3.org/2000/svg" xmlns:xlink="http://www.w3.org/1999/xlink" viewBox="0 0 1080 1080">
  <defs>
    <style>
      .cls-1 {
        fill: none;
      }

      .cls-2 {
        fill: #311c67;
      }

      .cls-3 {
        clip-path: url(#clippath);
      }
    </style>
    <clipPath id="clippath">
      <rect class="cls-1" x="292.38" y="283.01" width="425.8" height="451.85"/>
    </clipPath>
  </defs>
  <g class="cls-3">
    <path class="cls-2" d="M718.45,604.22l-8.12-163.14c-.91-18.19-9.73-37.05-24.21-51.74-18.88-19.16-43.53-24.78-60.88-26.12-.18-.01-.38-.02-.55-.02l-19.43.05h-13.63c-3.3-44.66-40.7-80-86.2-80s-82.98,35.41-86.21,80.15h-13.62s-19.43-.03-19.43-.03c-.18,0-.38,0-.56.02-17.35,1.34-42,6.96-60.87,26.12-14.48,14.69-23.31,33.55-24.21,51.74l-8.12,163.14c0,.12-.01.23-.01.35,0,64.57,48.26,119.83,112.25,128.54.24.03.48.05.72.06,32.34,1.02,65.13,1.54,97.53,1.54h3.92c32.74-.05,65.94-.62,98.68-1.71.25-.01.49-.03.73-.06,63.99-8.72,112.23-63.99,112.23-128.54,0-.12,0-.24,0-.36ZM505.42,297.29c37.76,0,68.84,29.06,72.1,65.98l-144.21.12c3.2-36.98,34.31-66.1,72.11-66.1ZM591.86,441.31c0,47.66-38.77,86.44-86.44,86.44s-86.44-38.78-86.44-86.44v-.96c0-3.88,3.14-7.02,7.02-7.02s7.02,3.14,7.02,7.02v.96c0,39.92,32.48,72.4,72.4,72.4s72.4-32.48,72.4-72.4v-.96c0-3.88,3.14-7.02,7.02-7.02s7.02,3.14,7.02,7.02v.96Z"/>
  </g>
</svg>