<?xml version="1.0" encoding="UTF-8"?>
<svg id="Layer_1" data-name="Layer 1" xmlns="http://www.w3.org/2000/svg" viewBox="0 0 1080 1080">
  <defs>
    <style>
      .cls-1 {
        fill: #db5a29;
        fill-rule: evenodd;
      }
    </style>
  </defs>
  <path class="cls-1" d="M531.47,222.86c4.56,0,9.09.11,13.64.33s9.08.55,13.61,1,9.04,1,13.54,1.67,8.98,1.45,13.44,2.33c4.45.88,8.89,1.88,13.31,2.99,4.41,1.1,8.79,2.31,13.15,3.63,4.35,1.32,8.67,2.76,12.95,4.29,4.29,1.53,8.53,3.17,12.72,4.9,4.21,1.74,8.36,3.58,12.48,5.54,4.11,1.94,8.18,3.98,12.18,6.13,4.02,2.14,7.98,4.38,11.87,6.73,3.9,2.33,7.74,4.77,11.52,7.29,3.78,2.53,7.5,5.15,11.16,7.86s7.23,5.51,10.74,8.39c3.52,2.89,6.96,5.85,10.33,8.92,3.37,3.05,6.67,6.18,9.88,9.4s6.35,6.51,9.4,9.88c3.06,3.37,6.03,6.81,8.92,10.33,2.89,3.51,5.68,7.09,8.39,10.74,2.71,3.66,5.32,7.37,7.86,11.16,2.52,3.78,4.96,7.62,7.29,11.52,2.34,3.91,4.58,7.86,6.73,11.87,2.14,4.01,4.18,8.07,6.13,12.18,1.96,4.11,3.79,8.27,5.54,12.48,1.73,4.19,3.37,8.43,4.9,12.72,1.54,4.29,2.97,8.6,4.29,12.95,1.32,4.36,2.53,8.74,3.64,13.15,1.1,4.42,2.1,8.86,2.98,13.31.9,4.46,1.67,8.94,2.33,13.44.67,4.5,1.23,9.01,1.67,13.54s.78,9.06,1,13.61.33,9.08.33,13.64c0,94.92-51.75,172.61-106.28,228.36-27.3,27.6-56.9,52.47-88.8,74.59l-13.16,8.97-6.17,4.1-11.65,7.41-10.37,6.34-12.85,7.47c-4.36,2.49-8.97,4.37-13.82,5.67-4.84,1.28-9.78,1.93-14.81,1.93s-9.95-.65-14.81-1.93c-4.84-1.3-9.45-3.18-13.81-5.67l-12.85-7.47-16.06-9.88-5.93-3.86-12.66-8.42c-34.42-23.3-66.27-49.71-95.51-79.24-54.53-55.77-106.3-133.44-106.3-228.36,0-4.56.12-9.09.34-13.64s.55-9.08,1-13.61,1-9.04,1.67-13.54c.66-4.5,1.44-8.98,2.33-13.44.88-4.45,1.88-8.89,2.98-13.31,1.11-4.41,2.32-8.79,3.64-13.15,1.32-4.35,2.74-8.66,4.28-12.95,1.54-4.29,3.17-8.53,4.91-12.72,1.74-4.21,3.58-8.36,5.53-12.48s3.99-8.18,6.14-12.18c2.14-4.02,4.38-7.96,6.73-11.87,2.33-3.9,4.77-7.74,7.29-11.52,2.53-3.78,5.15-7.49,7.86-11.16,2.71-3.65,5.5-7.23,8.39-10.74,2.89-3.52,5.85-6.96,8.92-10.33,3.05-3.37,6.18-6.67,9.4-9.88s6.51-6.35,9.88-9.4c3.37-3.06,6.81-6.03,10.32-8.92,3.52-2.87,7.1-5.68,10.76-8.39s7.37-5.32,11.16-7.86c3.78-2.52,7.62-4.96,11.52-7.29,3.9-2.34,7.86-4.58,11.87-6.73,4.01-2.14,8.07-4.18,12.18-6.13,4.11-1.96,8.27-3.79,12.48-5.54,4.19-1.73,8.43-3.37,12.72-4.9,4.28-1.53,8.6-2.97,12.95-4.29,4.36-1.32,8.74-2.53,13.15-3.63,4.42-1.11,8.85-2.11,13.31-2.99s8.94-1.66,13.44-2.33,9.01-1.23,13.54-1.67,9.06-.78,13.61-1,9.08-.33,13.63-.33M531.47,284.61c-3.53,0-7.07.08-10.6.26s-7.06.44-10.58.78c-3.52.35-7.03.79-10.53,1.31s-6.99,1.12-10.45,1.81c-3.48.68-6.93,1.46-10.36,2.32s-6.83,1.8-10.23,2.83c-3.38,1.02-6.74,2.13-10.07,3.33-3.33,1.19-6.63,2.46-9.9,3.82-3.28,1.35-6.5,2.78-9.71,4.3-3.19,1.51-6.35,3.1-9.47,4.77-3.12,1.66-6.2,3.4-9.24,5.22-3.03,1.83-6.02,3.71-8.95,5.68-2.95,1.97-5.84,4.01-8.68,6.11s-5.63,4.28-8.36,6.53c-2.73,2.24-5.41,4.56-8.03,6.93-2.62,2.38-5.18,4.82-7.68,7.32-2.5,2.51-4.94,5.07-7.32,7.68-2.38,2.63-4.69,5.3-6.93,8.03-2.25,2.73-4.42,5.53-6.53,8.36-2.11,2.85-4.15,5.74-6.11,8.68-1.97,2.93-3.85,5.93-5.68,8.97-1.81,3.03-3.56,6.1-5.23,9.22-1.66,3.12-3.25,6.28-4.76,9.48-1.52,3.19-2.96,6.42-4.3,9.7-1.35,3.26-2.63,6.56-3.83,9.9-1.19,3.33-2.3,6.69-3.32,10.07-1.02,3.39-1.97,6.8-2.83,10.23-.86,3.44-1.64,6.88-2.33,10.36-.68,3.46-1.28,6.95-1.81,10.45-.52,3.5-.94,7.01-1.3,10.53-.34,3.52-.6,7.04-.78,10.58s-.26,7.07-.26,10.61c0,71.7,39.28,134.63,88.65,185.14,21.28,21.53,44.14,41.2,68.62,58.99l14.14,10.07c4.57,3.18,8.97,6.15,13.19,8.88l12.04,7.73,10.59,6.46,8.92,5.22,14.05-8.32,11.33-7.09c6.03-3.83,12.49-8.13,19.37-12.88l14.14-10.07c24.48-17.79,47.35-37.45,68.62-58.99,49.37-50.48,88.65-113.45,88.65-185.14,0-3.55-.08-7.08-.26-10.61s-.44-7.06-.78-10.58c-.35-3.52-.79-7.03-1.31-10.53s-1.12-6.99-1.81-10.45c-.68-3.48-1.46-6.92-2.32-10.36-.86-3.43-1.8-6.83-2.83-10.23-1.02-3.38-2.13-6.74-3.33-10.07-1.19-3.33-2.46-6.63-3.82-9.9-1.35-3.28-2.78-6.5-4.3-9.7-1.51-3.2-3.1-6.36-4.77-9.48-1.66-3.12-3.4-6.2-5.22-9.22-1.83-3.04-3.71-6.03-5.68-8.97-1.97-2.95-4.01-5.83-6.11-8.68-2.11-2.84-4.28-5.63-6.53-8.36-2.24-2.73-4.55-5.41-6.93-8.03-2.38-2.62-4.82-5.17-7.32-7.68-2.5-2.5-5.07-4.94-7.68-7.32-2.63-2.37-5.3-4.69-8.03-6.93-2.73-2.25-5.53-4.42-8.36-6.53-2.85-2.11-5.74-4.15-8.68-6.11-2.93-1.97-5.93-3.85-8.95-5.68-3.04-1.81-6.11-3.56-9.24-5.22-3.12-1.67-6.28-3.26-9.48-4.77-3.19-1.52-6.42-2.95-9.7-4.3-3.26-1.35-6.56-2.63-9.9-3.82-3.33-1.2-6.69-2.31-10.07-3.33-3.39-1.02-6.8-1.97-10.23-2.83s-6.88-1.64-10.36-2.32c-3.46-.7-6.95-1.3-10.45-1.81s-7.01-.95-10.53-1.31c-3.52-.34-7.04-.6-10.58-.78s-7.07-.26-10.61-.26M531.47,377.25c4.05,0,8.08.19,12.11.59s8.02.99,11.99,1.78,7.88,1.77,11.76,2.95,7.68,2.53,11.42,4.09c3.73,1.54,7.39,3.28,10.96,5.18s7.03,3.98,10.4,6.23c3.36,2.24,6.61,4.65,9.73,7.22,3.12,2.56,6.13,5.28,8.98,8.14,2.86,2.85,5.58,5.85,8.14,8.98,2.57,3.12,4.98,6.37,7.22,9.73,2.25,3.37,4.32,6.83,6.23,10.4s3.64,7.22,5.18,10.96c1.56,3.73,2.91,7.54,4.09,11.42s2.16,7.79,2.95,11.76c.79,3.97,1.38,7.96,1.78,11.99.4,4.03.59,8.06.59,12.11s-.19,8.08-.59,12.1c-.4,4.03-.99,8.02-1.78,11.99-.79,3.97-1.77,7.89-2.95,11.76-1.18,3.88-2.53,7.68-4.09,11.42-1.54,3.73-3.28,7.39-5.18,10.96s-3.98,7.03-6.23,10.4c-2.24,3.36-4.65,6.61-7.22,9.73-2.56,3.13-5.28,6.13-8.14,8.99s-5.85,5.57-8.98,8.14c-3.12,2.56-6.37,4.97-9.73,7.21-3.37,2.25-6.83,4.34-10.4,6.23-3.57,1.91-7.22,3.64-10.96,5.18-3.73,1.56-7.54,2.91-11.42,4.09s-7.79,2.16-11.76,2.95-7.96,1.38-11.99,1.78-8.06.59-12.11.59-8.08-.19-12.1-.59c-4.03-.4-8.02-.99-11.99-1.78s-7.89-1.77-11.76-2.95c-3.88-1.18-7.68-2.53-11.42-4.09-3.73-1.54-7.39-3.28-10.96-5.18-3.57-1.9-7.03-3.98-10.4-6.23-3.36-2.24-6.61-4.65-9.73-7.21-3.13-2.57-6.13-5.29-8.98-8.14s-5.58-5.85-8.14-8.99c-2.57-3.12-4.98-6.37-7.22-9.73-2.25-3.37-4.34-6.83-6.23-10.4-1.91-3.57-3.64-7.22-5.18-10.96-1.56-3.73-2.91-7.54-4.09-11.42-1.18-3.86-2.16-7.79-2.95-11.76s-1.38-7.96-1.78-11.99c-.4-4.02-.59-8.06-.59-12.1s.19-8.08.59-12.11.99-8.02,1.78-11.99,1.77-7.88,2.95-11.76,2.53-7.68,4.09-11.42c1.54-3.73,3.28-7.39,5.18-10.96,1.9-3.57,3.98-7.03,6.23-10.4,2.24-3.36,4.65-6.61,7.22-9.73,2.56-3.12,5.28-6.13,8.14-8.98,2.85-2.86,5.84-5.58,8.98-8.14,3.12-2.57,6.37-4.98,9.73-7.22,3.37-2.25,6.83-4.32,10.4-6.23s7.22-3.64,10.96-5.18c3.73-1.56,7.54-2.91,11.42-4.09,3.86-1.18,7.79-2.16,11.76-2.95s7.96-1.38,11.99-1.78c4.02-.4,8.06-.59,12.1-.59M531.47,439.01c-2.01,0-4.04.11-6.04.29-2.01.2-4.02.49-6,.9-1.99.39-3.95.88-5.88,1.47-1.94.59-3.84,1.26-5.71,2.04-1.86.78-3.69,1.64-5.48,2.59-1.78.95-3.51,1.99-5.2,3.12-1.68,1.12-3.31,2.32-4.87,3.6-1.57,1.28-3.06,2.64-4.5,4.08s-2.78,2.92-4.06,4.49-2.49,3.18-3.6,4.87c-1.13,1.68-2.17,3.42-3.12,5.2-.95,1.79-1.81,3.62-2.59,5.48-.78,1.87-1.45,3.77-2.04,5.71-.59,1.93-1.08,3.89-1.47,5.88-.4,1.98-.7,3.98-.9,6s-.29,4.03-.29,6.06.09,4.04.29,6.04c.2,2.01.49,4.02.9,6,.39,1.99.88,3.95,1.47,5.88.59,1.94,1.26,3.84,2.04,5.71.78,1.86,1.64,3.69,2.59,5.48.95,1.78,1.99,3.51,3.12,5.2,1.12,1.68,2.32,3.31,3.6,4.87,1.28,1.57,2.64,3.06,4.06,4.5,1.44,1.43,2.93,2.78,4.5,4.06,1.56,1.28,3.18,2.49,4.87,3.62,1.68,1.12,3.42,2.16,5.2,3.11,1.79.95,3.62,1.81,5.48,2.59,1.87.78,3.77,1.45,5.71,2.04,1.93.59,3.89,1.08,5.88,1.47,1.98.4,3.98.7,6,.9,2,.2,4.03.29,6.04.29s4.04-.09,6.06-.29,4.02-.49,6-.9c1.99-.39,3.95-.88,5.88-1.47,1.94-.59,3.84-1.26,5.71-2.04,1.86-.78,3.69-1.64,5.48-2.59,1.78-.95,3.51-1.99,5.2-3.11,1.68-1.13,3.31-2.33,4.87-3.62,1.57-1.28,3.06-2.64,4.49-4.06s2.79-2.93,4.08-4.5c1.28-1.56,2.49-3.18,3.6-4.87,1.13-1.68,2.17-3.42,3.12-5.2.95-1.79,1.81-3.62,2.59-5.48.78-1.87,1.45-3.77,2.04-5.71.59-1.93,1.08-3.89,1.47-5.88.4-1.98.7-3.98.9-6,.19-2,.29-4.03.29-6.04s-.11-4.04-.29-6.06c-.2-2.01-.49-4.02-.9-6-.39-1.99-.88-3.95-1.47-5.88-.59-1.94-1.26-3.84-2.04-5.71-.78-1.86-1.64-3.69-2.59-5.48-.95-1.78-1.99-3.51-3.12-5.2-1.12-1.68-2.32-3.3-3.6-4.87s-2.64-3.06-4.08-4.49c-1.43-1.44-2.92-2.79-4.49-4.08-1.56-1.28-3.18-2.49-4.87-3.6-1.68-1.13-3.42-2.17-5.2-3.12-1.79-.95-3.62-1.81-5.48-2.59-1.87-.78-3.77-1.45-5.71-2.04-1.93-.59-3.89-1.08-5.88-1.47-1.98-.4-3.98-.7-6-.9-2.01-.19-4.03-.29-6.06-.29"/>
</svg>